<svg xmlns="http://www.w3.org/2000/svg" viewBox="0 0 600 600" role="img" aria-label="SEBO DE RES 500 g">
  <defs>
    <linearGradient id="glass" x1="0" y1="0" x2="1" y2="0">
      <stop offset="0" stop-color="#ffffff" stop-opacity="0.35"/>
      <stop offset="0.25" stop-color="#ffffff" stop-opacity="0.05"/>
      <stop offset="0.75" stop-color="#000000" stop-opacity="0.05"/>
      <stop offset="1" stop-color="#000000" stop-opacity="0.14"/>
    </linearGradient>
    <linearGradient id="metal" x1="0" y1="0" x2="0" y2="1">
      <stop offset="0" stop-color="#c98b3f"/>
      <stop offset="0.5" stop-color="#ffffff" stop-opacity="0.35"/>
      <stop offset="1" stop-color="#c98b3f"/>
    </linearGradient>
    <radialGradient id="glow" cx="0.5" cy="0.45" r="0.6">
      <stop offset="0" stop-color="#f3dfc0"/>
      <stop offset="1" stop-color="#ffffff" stop-opacity="0"/>
    </radialGradient>
  </defs>

  <circle cx="300" cy="300" r="250" fill="url(#glow)"/>

  <!-- sombra -->
  <ellipse cx="300" cy="536" rx="150" ry="22" fill="#2a1c10" opacity="0.18"/>

  <!-- tapa -->
  <rect x="196" y="92" width="208" height="66" rx="16" fill="url(#metal)"/>
  <rect x="206" y="100" width="188" height="50" rx="11" fill="#000000" opacity="0.06"/>
  <rect x="216" y="100" width="5" height="50" rx="2.5" fill="#000000" opacity="0.10"/><rect x="236" y="100" width="5" height="50" rx="2.5" fill="#000000" opacity="0.10"/><rect x="256" y="100" width="5" height="50" rx="2.5" fill="#000000" opacity="0.10"/><rect x="276" y="100" width="5" height="50" rx="2.5" fill="#000000" opacity="0.10"/><rect x="296" y="100" width="5" height="50" rx="2.5" fill="#000000" opacity="0.10"/><rect x="316" y="100" width="5" height="50" rx="2.5" fill="#000000" opacity="0.10"/><rect x="336" y="100" width="5" height="50" rx="2.5" fill="#000000" opacity="0.10"/><rect x="356" y="100" width="5" height="50" rx="2.5" fill="#000000" opacity="0.10"/><rect x="376" y="100" width="5" height="50" rx="2.5" fill="#000000" opacity="0.10"/>

  <!-- cuello -->
  <rect x="212" y="156" width="176" height="34" rx="8" fill="#f3dfc0"/>
  <rect x="212" y="156" width="176" height="34" rx="8" fill="url(#glass)"/>

  <!-- cuerpo -->
  <rect x="150" y="184" width="300" height="336" rx="30" fill="#f3dfc0"/>
  <rect x="150" y="184" width="300" height="336" rx="30" fill="url(#glass)"/>

  <!-- brillo -->
  <rect x="172" y="212" width="26" height="270" rx="13" fill="#ffffff" opacity="0.35"/>

  <!-- etiqueta -->
  <rect x="168" y="256" width="264" height="196" rx="16" fill="#7a3b1d"/>
  <rect x="168" y="256" width="264" height="196" rx="16" fill="#000000" opacity="0.05"/>
  <rect x="186" y="274" width="228" height="0.5" fill="#ffffff" opacity="0.4"/>
  <text x="300" y="302" text-anchor="middle" font-family="Georgia, serif" font-size="18" letter-spacing="6" fill="#f3dfc0">OLDWAYS</text>
  <text x="300" y="330" text-anchor="middle" font-family="Georgia, 'Times New Roman', serif" font-size="34" font-weight="700" fill="#fff8ec" letter-spacing="1">SEBO DE</text><text x="300" y="370" text-anchor="middle" font-family="Georgia, 'Times New Roman', serif" font-size="34" font-weight="700" fill="#fff8ec" letter-spacing="1">RES</text>
  <text x="300" y="432" text-anchor="middle" font-family="Arial, sans-serif" font-size="16" letter-spacing="3" fill="#f3dfc0" opacity="0.9">500 g · BEEF</text>
  <rect x="186" y="446" width="228" height="0.5" fill="#ffffff" opacity="0.4"/>
</svg>
